<?xml version="1.0"?><svg fill="#000000" xmlns="http://www.w3.org/2000/svg"  viewBox="0 0 100 100" width="100px" height="100px">    <path d="M 50 16.228516 C 49.448 16.228516 49 16.675516 49 17.228516 L 49 24.228516 C 49 24.781516 49.448 25.228516 50 25.228516 C 50.552 25.228516 51 24.781516 51 24.228516 L 51 17.228516 C 51 16.675516 50.552 16.228516 50 16.228516 z M 26.666016 25.666016 C 26.410266 25.666016 26.154484 25.763484 25.958984 25.958984 C 25.567984 26.349984 25.567984 26.982047 25.958984 27.373047 L 31.074219 32.488281 C 31.269219 32.683281 31.52525 32.78125 31.78125 32.78125 C 32.03725 32.78125 32.293281 32.683281 32.488281 32.488281 C 32.879281 32.097281 32.879281 31.465219 32.488281 31.074219 L 27.373047 25.958984 C 27.177547 25.763484 26.921766 25.666016 26.666016 25.666016 z M 73.035156 25.962891 C 72.779406 25.962891 72.523625 26.062313 72.328125 26.257812 L 67.271484 31.314453 C 66.880484 31.705453 66.880484 32.337516 67.271484 32.728516 C 67.466484 32.924516 67.722516 33.021484 67.978516 33.021484 C 68.234516 33.021484 68.490547 32.923516 68.685547 32.728516 L 73.742188 27.671875 C 74.133188 27.280875 74.133187 26.648813 73.742188 26.257812 C 73.546687 26.062312 73.290906 25.962891 73.035156 25.962891 z M 50.5 27.228516 C 38.093 27.228516 28 37.322516 28 49.728516 C 28 62.134516 38.093 72.228516 50.5 72.228516 C 62.907 72.228516 73 62.135516 73 49.728516 C 73 37.321516 62.907 27.228516 50.5 27.228516 z M 50.5 29.228516 C 61.804 29.228516 71 38.425516 71 49.728516 C 71 61.031516 61.804 70.228516 50.5 70.228516 C 39.196 70.228516 30 61.032516 30 49.728516 C 30 38.424516 39.196 29.228516 50.5 29.228516 z M 50.5 32.228516 C 40.851 32.228516 33 40.079516 33 49.728516 C 33 59.377516 40.851 67.228516 50.5 67.228516 C 50.776 67.228516 51 67.004516 51 66.728516 C 51 66.452516 50.776 66.228516 50.5 66.228516 C 41.402 66.228516 34 58.826516 34 49.728516 C 34 40.630516 41.402 33.228516 50.5 33.228516 C 53.234 33.228516 55.942031 33.911172 58.332031 35.201172 C 58.577031 35.332172 58.877766 35.241047 59.009766 34.998047 C 59.140766 34.756047 59.049641 34.453266 58.806641 34.322266 C 56.271641 32.952266 53.399 32.228516 50.5 32.228516 z M 60.085938 35.253906 C 59.960062 35.276656 59.842672 35.349391 59.763672 35.462891 C 59.605672 35.689891 59.661672 35.99925 59.888672 36.15625 C 60.269672 36.42125 60.639094 36.702094 60.996094 36.996094 C 61.089094 37.073094 61.2015 37.109375 61.3125 37.109375 C 61.4575 37.109375 61.601219 37.047734 61.699219 36.927734 C 61.875219 36.714734 61.844859 36.400609 61.630859 36.224609 C 61.253859 35.913609 60.861984 35.617891 60.458984 35.337891 C 60.345484 35.258391 60.211813 35.231156 60.085938 35.253906 z M 17 49.228516 C 16.448 49.228516 16 49.675516 16 50.228516 C 16 50.781516 16.448 51.228516 17 51.228516 L 24 51.228516 C 24.552 51.228516 25 50.781516 25 50.228516 C 25 49.675516 24.552 49.228516 24 49.228516 L 17 49.228516 z M 76 49.228516 C 75.448 49.228516 75 49.675516 75 50.228516 C 75 50.781516 75.448 51.228516 76 51.228516 L 83 51.228516 C 83.552 51.228516 84 50.781516 84 50.228516 C 84 49.675516 83.552 49.228516 83 49.228516 L 76 49.228516 z M 58.53125 64.144531 C 57.76225 64.577531 57.445047 64.755688 56.623047 65.054688 C 56.363047 65.148687 56.228266 65.435312 56.322266 65.695312 C 56.396266 65.898313 56.588969 66.025391 56.792969 66.025391 C 56.849969 66.025391 56.906891 66.014141 56.962891 65.994141 C 57.862891 65.668141 58.249484 65.450625 59.021484 65.015625 L 58.828125 64.552734 L 58.53125 64.144531 z M 54.943359 65.664062 C 54.879203 65.654938 54.810891 65.659234 54.744141 65.677734 C 54.490141 65.744734 54.233609 65.806328 53.974609 65.861328 C 53.704609 65.919328 53.532844 66.185078 53.589844 66.455078 C 53.639844 66.690078 53.847125 66.851563 54.078125 66.851562 C 54.112125 66.851562 54.148594 66.846844 54.183594 66.839844 C 54.457594 66.780844 54.73 66.715531 55 66.644531 C 55.267 66.574531 55.426469 66.299203 55.355469 66.033203 C 55.302219 65.833703 55.135828 65.691438 54.943359 65.664062 z M 32.021484 66.976562 C 31.765734 66.976687 31.509953 67.074531 31.314453 67.269531 L 26.257812 72.328125 C 25.866813 72.719125 25.866813 73.351187 26.257812 73.742188 C 26.452813 73.937187 26.708844 74.035156 26.964844 74.035156 C 27.220844 74.035156 27.476875 73.937187 27.671875 73.742188 L 32.728516 68.683594 C 33.119516 68.292594 33.119516 67.660531 32.728516 67.269531 C 32.533016 67.074031 32.277234 66.976438 32.021484 66.976562 z M 68.144531 67.144531 C 67.888781 67.144531 67.633 67.242 67.4375 67.4375 C 67.0465 67.8285 67.0465 68.460562 67.4375 68.851562 L 72.628906 74.041016 C 72.823906 74.236016 73.079937 74.333984 73.335938 74.333984 C 73.591938 74.333984 73.847969 74.236016 74.042969 74.041016 C 74.433969 73.650016 74.433969 73.017953 74.042969 72.626953 L 68.851562 67.4375 C 68.656062 67.242 68.400281 67.144531 68.144531 67.144531 z M 50 74.228516 C 49.448 74.228516 49 74.675516 49 75.228516 L 49 82.228516 C 49 82.781516 49.448 83.228516 50 83.228516 C 50.552 83.228516 51 82.781516 51 82.228516 L 51 75.228516 C 51 74.676516 50.552 74.228516 50 74.228516 z"/></svg>