<?xml version="1.0"?><svg fill="#000000" xmlns="http://www.w3.org/2000/svg"  viewBox="0 0 100 100" width="100px" height="100px">    <path d="M 43.082031 13.613281 C 38.869038 13.613281 35.491498 18.213479 34.925781 24.613281 L 32.429688 24.613281 C 31.958688 24.613281 31.574219 24.99675 31.574219 25.46875 L 31.574219 26.613281 L 16.324219 26.613281 C 13.706219 26.613281 11.574219 28.744281 11.574219 31.363281 L 11.574219 81.863281 C 11.574219 84.482281 13.706219 86.613281 16.324219 86.613281 L 86.824219 86.613281 C 89.443219 86.613281 91.574219 84.483234 91.574219 81.865234 L 91.574219 31.363281 C 91.574219 28.744281 89.443219 26.613281 86.824219 26.613281 L 70.572266 26.613281 L 70.574219 25.46875 C 70.574219 24.99775 70.19075 24.613281 69.71875 24.613281 L 66.943359 24.613281 C 66.354828 17.220142 63.681708 13.613281 58.769531 13.613281 L 43.082031 13.613281 z M 43.082031 14.613281 L 58.769531 14.613281 C 63.1061 14.613281 65.393001 17.795436 65.945312 24.613281 L 64.394531 24.613281 C 64.116472 21.1218 62.215678 16.613281 59.472656 16.613281 L 42.380859 16.613281 C 41.420859 16.613281 40.467047 17.113594 39.623047 18.058594 C 38.189047 19.665594 37.356703 22.238281 37.470703 24.613281 L 35.921875 24.613281 C 36.458875 18.786281 39.419031 14.613281 43.082031 14.613281 z M 42.380859 17.613281 L 59.472656 17.613281 C 61.350497 17.613281 63.093864 21.33913 63.373047 24.613281 L 60.429688 24.613281 C 59.958688 24.613281 59.574219 24.99675 59.574219 25.46875 L 59.574219 26.613281 L 42.572266 26.613281 L 42.574219 25.46875 C 42.574219 24.99775 42.19075 24.613281 41.71875 24.613281 L 38.484375 24.613281 C 38.364166 22.47525 39.086865 20.159244 40.367188 18.724609 C 40.819187 18.217609 41.537859 17.613281 42.380859 17.613281 z M 32.574219 25.613281 L 41.574219 25.613281 L 41.574219 26.613281 L 32.574219 26.613281 L 32.574219 25.613281 z M 60.574219 25.613281 L 63.919922 25.613281 L 66.482422 25.632812 L 66.486328 25.632812 C 66.519123 25.632812 66.548477 25.619531 66.580078 25.613281 L 69.574219 25.613281 L 69.574219 26.613281 L 60.574219 26.613281 L 60.574219 25.613281 z M 16.324219 28.613281 L 46.574219 28.613281 L 46.574219 45.320312 C 45.935129 46.121109 45.537904 47.130998 45.544922 48.244141 L 45.574219 53.054688 C 45.581046 54.10009 45.943759 55.079119 46.574219 55.884766 L 46.574219 82.113281 C 46.574219 82.389281 46.798219 82.613281 47.074219 82.613281 C 47.350219 82.613281 47.574219 82.389281 47.574219 82.113281 L 47.574219 56.851562 C 48.171373 57.262429 48.855926 57.499466 49.574219 57.580078 L 49.574219 58.744141 C 49.574219 59.224141 49.965313 59.615234 50.445312 59.615234 L 51.701172 59.615234 C 52.180172 59.615234 52.570312 59.223141 52.570312 58.744141 L 52.570312 57.566406 C 53.290781 57.491569 53.975184 57.258445 54.574219 56.853516 L 54.574219 84.613281 L 48.074219 84.613281 C 48.070769 84.613281 48.067887 84.615165 48.064453 84.615234 L 24.574219 84.615234 L 24.542969 79.212891 C 24.532969 77.698891 23.852 76.28075 22.625 75.21875 C 21.428 74.18275 19.855406 73.613281 18.191406 73.613281 L 18.144531 73.613281 L 13.574219 73.646484 L 13.574219 57.613281 L 45.074219 57.613281 C 45.350219 57.613281 45.574219 57.389281 45.574219 57.113281 C 45.574219 56.837281 45.350219 56.613281 45.074219 56.613281 L 13.574219 56.613281 L 13.574219 31.363281 C 13.574219 29.846281 14.808219 28.613281 16.324219 28.613281 z M 47.574219 28.613281 L 54.574219 28.613281 L 54.574219 29.113281 C 54.574219 29.389281 54.798219 29.613281 55.074219 29.613281 C 55.350219 29.613281 55.574219 29.389281 55.574219 29.113281 L 55.574219 28.613281 L 86.824219 28.613281 C 88.341219 28.613281 89.574219 29.847281 89.574219 31.363281 L 89.574219 56.613281 L 58.074219 56.613281 C 57.798219 56.613281 57.574219 56.837281 57.574219 57.113281 C 57.574219 57.389281 57.798219 57.613281 58.074219 57.613281 L 89.574219 57.613281 L 89.574219 73.642578 L 85.291016 73.613281 L 85.238281 73.613281 C 83.505281 73.613281 81.865188 74.180937 80.617188 75.210938 C 79.331187 76.272937 78.617422 77.692937 78.607422 79.210938 L 78.576172 84.615234 L 55.574219 84.615234 L 55.574219 55.910156 C 56.237451 55.081605 56.612537 54.063866 56.605469 52.982422 L 56.574219 48.175781 C 56.566986 47.100188 56.184617 46.124372 55.574219 45.34375 L 55.574219 34.113281 C 55.574219 33.837281 55.350219 33.613281 55.074219 33.613281 C 54.798219 33.613281 54.574219 33.837281 54.574219 34.113281 L 54.574219 44.376953 C 53.860465 43.887016 53.004514 43.601562 52.083984 43.601562 L 52.056641 43.601562 L 50.007812 43.613281 C 49.108719 43.619091 48.274382 43.904231 47.574219 44.376953 L 47.574219 28.613281 z M 55.074219 30.488281 C 54.798219 30.488281 54.574219 30.64775 54.574219 30.84375 L 54.574219 32.259766 C 54.574219 32.455766 54.798219 32.613281 55.074219 32.613281 C 55.350219 32.613281 55.574219 32.455766 55.574219 32.259766 L 55.574219 30.84375 C 55.574219 30.64775 55.350219 30.488281 55.074219 30.488281 z M 52.060547 44.601562 C 54.032547 44.587562 55.561219 46.194641 55.574219 48.181641 L 55.603516 52.990234 C 55.609516 53.953234 55.249797 54.860875 54.591797 55.546875 C 54.04115 56.121061 53.333983 56.463513 52.572266 56.566406 L 52.572266 55.560547 C 53.712639 55.368872 54.584302 54.362518 54.576172 53.148438 L 54.542969 48.037109 C 54.533969 46.693109 53.411719 45.619234 52.136719 45.615234 L 49.951172 45.628906 C 49.310172 45.632906 48.711719 45.892375 48.261719 46.359375 C 47.815719 46.822375 47.571219 47.434031 47.574219 48.082031 L 47.605469 53.191406 C 47.609469 53.839406 47.862453 54.44825 48.314453 54.90625 C 48.663539 55.25998 49.101956 55.48624 49.576172 55.572266 L 49.576172 56.580078 C 48.827926 56.474937 48.160513 56.143293 47.617188 55.591797 C 46.950187 54.913797 46.580219 54.010828 46.574219 53.048828 L 46.544922 48.238281 C 46.532922 46.252281 48.087719 44.625281 50.011719 44.613281 L 52.060547 44.601562 z M 52.142578 46.615234 L 52.150391 46.615234 C 52.914391 46.615234 53.539922 47.254922 53.544922 48.044922 L 53.576172 53.154297 C 53.580311 53.810805 53.153632 54.361463 52.572266 54.537109 L 52.574219 52.486328 C 52.574219 52.006328 52.183125 51.615234 51.703125 51.615234 L 50.449219 51.615234 C 49.969219 51.615234 49.578125 52.006328 49.578125 52.486328 L 49.576172 54.541016 C 49.372186 54.473501 49.183551 54.363089 49.025391 54.203125 C 48.757391 53.932125 48.608469 53.571547 48.605469 53.185547 L 48.574219 48.076172 C 48.571219 47.690172 48.716469 47.326734 48.980469 47.052734 C 49.241469 46.781734 49.588031 46.631906 49.957031 46.628906 L 52.142578 46.615234 z M 50.578125 52.615234 L 51.574219 52.615234 L 51.570312 58.615234 L 50.574219 58.615234 L 50.578125 52.615234 z M 18.150391 74.613281 C 19.556391 74.593281 20.945703 75.087609 21.970703 75.974609 C 22.976703 76.845609 23.533016 77.99775 23.541016 79.21875 L 23.572266 84.615234 L 16.324219 84.615234 C 14.808219 84.615234 13.574219 83.381234 13.574219 81.865234 L 13.574219 74.646484 L 18.150391 74.613281 z M 85.238281 74.613281 L 85.285156 74.613281 L 89.574219 74.642578 L 89.574219 81.865234 C 89.574219 83.382234 88.341219 84.615234 86.824219 84.615234 L 79.578125 84.615234 L 79.609375 79.216797 C 79.616375 78.000797 80.201859 76.850469 81.255859 75.980469 C 82.324859 75.097469 83.737281 74.613281 85.238281 74.613281 z M 18.5625 77.613281 C 17.4605 77.621281 16.567219 78.523953 16.574219 79.626953 C 16.577219 80.161953 16.789922 80.662109 17.169922 81.037109 C 17.546922 81.409109 18.044219 81.613281 18.574219 81.613281 C 18.579219 81.613281 18.582891 81.614281 18.587891 81.613281 C 19.689891 81.605281 20.581219 80.701609 20.574219 79.599609 C 20.571219 79.064609 20.361469 78.564453 19.980469 78.189453 C 19.600469 77.814453 19.1405 77.627281 18.5625 77.613281 z M 84.572266 77.613281 C 84.044266 77.613281 83.545922 77.817453 83.169922 78.189453 C 82.788922 78.564453 82.577219 79.064609 82.574219 79.599609 C 82.567219 80.702609 83.4595 81.605281 84.5625 81.613281 L 84.576172 81.613281 C 85.105172 81.613281 85.604469 81.410109 85.980469 81.037109 C 86.361469 80.662109 86.571219 80.161953 86.574219 79.626953 C 86.581219 78.524953 85.690891 77.621281 84.587891 77.613281 L 84.572266 77.613281 z M 18.570312 78.613281 L 18.576172 78.613281 C 18.839172 78.613281 19.088344 78.716344 19.277344 78.902344 C 19.467344 79.090344 19.572219 79.340422 19.574219 79.607422 C 19.577219 80.158422 19.131078 80.609281 18.580078 80.613281 L 18.574219 80.613281 C 18.310219 80.613281 18.059094 80.512172 17.871094 80.326172 C 17.681094 80.139172 17.576219 79.888094 17.574219 79.621094 C 17.571219 79.069094 18.017312 78.616281 18.570312 78.613281 z M 84.578125 78.613281 C 85.131125 78.617281 85.577219 79.069094 85.574219 79.621094 C 85.572219 79.888094 85.466344 80.138172 85.277344 80.326172 C 85.088344 80.513172 84.858312 80.627281 84.570312 80.613281 C 84.018312 80.609281 83.571219 80.157469 83.574219 79.605469 C 83.576219 79.338469 83.681094 79.088391 83.871094 78.900391 C 84.059094 78.714391 84.324125 78.593281 84.578125 78.613281 z"/></svg>